<mxfile host="app.diagrams.net" agent="Mozilla/5.0 (Windows NT 10.0; Win64; x64) AppleWebKit/537.36 (KHTML, like Gecko) Chrome/131.0.0.0 Safari/537.36" version="25.0.1" pages="2">
  <diagram name="1 oldal" id="Z7JoF9Mt8MUnc5SsNRck">
    <mxGraphModel dx="3585" dy="1845" grid="1" gridSize="10" guides="1" tooltips="1" connect="1" arrows="1" fold="1" page="1" pageScale="1" pageWidth="827" pageHeight="1169" math="0" shadow="0">
      <root>
        <mxCell id="0" />
        <mxCell id="1" parent="0" />
        <mxCell id="GdVLOWbao8yWo_O-EaV6-11" style="edgeStyle=orthogonalEdgeStyle;rounded=0;orthogonalLoop=1;jettySize=auto;html=1;entryX=0.5;entryY=0;entryDx=0;entryDy=0;" parent="1" source="GdVLOWbao8yWo_O-EaV6-4" target="GdVLOWbao8yWo_O-EaV6-6" edge="1">
          <mxGeometry relative="1" as="geometry" />
        </mxCell>
        <mxCell id="GdVLOWbao8yWo_O-EaV6-4" value="&lt;b&gt;START&lt;/b&gt;" style="ellipse;whiteSpace=wrap;html=1;fillColor=#f4cccb;" parent="1" vertex="1">
          <mxGeometry x="340" y="40" width="120" height="80" as="geometry" />
        </mxCell>
        <mxCell id="GdVLOWbao8yWo_O-EaV6-10" style="edgeStyle=orthogonalEdgeStyle;rounded=0;orthogonalLoop=1;jettySize=auto;html=1;entryX=0.5;entryY=0;entryDx=0;entryDy=0;" parent="1" source="GdVLOWbao8yWo_O-EaV6-6" target="GdVLOWbao8yWo_O-EaV6-8" edge="1">
          <mxGeometry relative="1" as="geometry" />
        </mxCell>
        <mxCell id="GdVLOWbao8yWo_O-EaV6-6" value="NÉV/ÖSSZEG&lt;br&gt;MEGADÁSA" style="rounded=1;whiteSpace=wrap;html=1;fontStyle=1;fillColor=#fbe69a;" parent="1" vertex="1">
          <mxGeometry x="340" y="190" width="120" height="60" as="geometry" />
        </mxCell>
        <mxCell id="GdVLOWbao8yWo_O-EaV6-12" value="NEM" style="edgeStyle=orthogonalEdgeStyle;rounded=0;orthogonalLoop=1;jettySize=auto;html=1;entryX=0;entryY=0.5;entryDx=0;entryDy=0;fontStyle=1" parent="1" source="GdVLOWbao8yWo_O-EaV6-8" target="GdVLOWbao8yWo_O-EaV6-8" edge="1">
          <mxGeometry x="-0.85" relative="1" as="geometry">
            <mxPoint x="280" y="220" as="targetPoint" />
            <Array as="points">
              <mxPoint x="400" y="430" />
              <mxPoint x="240" y="430" />
              <mxPoint x="240" y="340" />
            </Array>
            <mxPoint as="offset" />
          </mxGeometry>
        </mxCell>
        <mxCell id="GdVLOWbao8yWo_O-EaV6-15" value="IGEN" style="edgeStyle=orthogonalEdgeStyle;rounded=0;orthogonalLoop=1;jettySize=auto;html=1;entryX=0.5;entryY=0;entryDx=0;entryDy=0;fontStyle=1" parent="1" source="GdVLOWbao8yWo_O-EaV6-8" target="GdVLOWbao8yWo_O-EaV6-14" edge="1">
          <mxGeometry relative="1" as="geometry">
            <mxPoint as="offset" />
          </mxGeometry>
        </mxCell>
        <mxCell id="GdVLOWbao8yWo_O-EaV6-8" value="&lt;font style=&quot;font-size: 10px;&quot;&gt;INPUT MEGFELELŐ&lt;/font&gt;" style="rhombus;whiteSpace=wrap;html=1;fillColor=#facd9f;fontStyle=1" parent="1" vertex="1">
          <mxGeometry x="340" y="300" width="120" height="80" as="geometry" />
        </mxCell>
        <mxCell id="GdVLOWbao8yWo_O-EaV6-17" style="edgeStyle=orthogonalEdgeStyle;rounded=0;orthogonalLoop=1;jettySize=auto;html=1;entryX=0.5;entryY=0;entryDx=0;entryDy=0;" parent="1" source="GdVLOWbao8yWo_O-EaV6-14" target="GdVLOWbao8yWo_O-EaV6-16" edge="1">
          <mxGeometry relative="1" as="geometry" />
        </mxCell>
        <mxCell id="GdVLOWbao8yWo_O-EaV6-14" value="TÉT/SZÁM/SZÍN&lt;br&gt;KiVÁLASZTÁSA" style="rounded=1;whiteSpace=wrap;html=1;fillColor=#fbe69a;strokeColor=#000000;fontStyle=1" parent="1" vertex="1">
          <mxGeometry x="520" y="410" width="120" height="60" as="geometry" />
        </mxCell>
        <mxCell id="GdVLOWbao8yWo_O-EaV6-30" value="NEM" style="edgeStyle=orthogonalEdgeStyle;rounded=0;orthogonalLoop=1;jettySize=auto;html=1;entryX=0;entryY=0.5;entryDx=0;entryDy=0;fontStyle=1" parent="1" source="GdVLOWbao8yWo_O-EaV6-16" target="GdVLOWbao8yWo_O-EaV6-16" edge="1">
          <mxGeometry x="-0.8946" relative="1" as="geometry">
            <mxPoint x="460" y="540" as="targetPoint" />
            <Array as="points">
              <mxPoint x="580" y="620" />
              <mxPoint x="420" y="620" />
              <mxPoint x="420" y="540" />
            </Array>
            <mxPoint as="offset" />
          </mxGeometry>
        </mxCell>
        <mxCell id="GdVLOWbao8yWo_O-EaV6-39" value="IGEN" style="edgeStyle=orthogonalEdgeStyle;rounded=0;orthogonalLoop=1;jettySize=auto;html=1;fontStyle=1" parent="1" edge="1">
          <mxGeometry x="-0.3345" relative="1" as="geometry">
            <mxPoint x="700" y="600" as="targetPoint" />
            <mxPoint x="640.0000000000001" y="539.75" as="sourcePoint" />
            <mxPoint as="offset" />
          </mxGeometry>
        </mxCell>
        <mxCell id="GdVLOWbao8yWo_O-EaV6-16" value="&lt;font style=&quot;font-size: 10px;&quot;&gt;TÉT ÖSSZEG ELLENŐRZÉSE&lt;/font&gt;" style="rhombus;whiteSpace=wrap;html=1;fillColor=#facd9f;fontStyle=1" parent="1" vertex="1">
          <mxGeometry x="520" y="500" width="120" height="80" as="geometry" />
        </mxCell>
        <mxCell id="GdVLOWbao8yWo_O-EaV6-23" style="edgeStyle=orthogonalEdgeStyle;rounded=0;orthogonalLoop=1;jettySize=auto;html=1;entryX=0.5;entryY=0;entryDx=0;entryDy=0;" parent="1" source="GdVLOWbao8yWo_O-EaV6-19" target="GdVLOWbao8yWo_O-EaV6-22" edge="1">
          <mxGeometry relative="1" as="geometry" />
        </mxCell>
        <mxCell id="GdVLOWbao8yWo_O-EaV6-19" value="RANDOM SZÁM LEGENERÁLÁSA" style="rounded=1;whiteSpace=wrap;html=1;fillColor=#fbe69a;strokeColor=#000000;fontStyle=1" parent="1" vertex="1">
          <mxGeometry x="640" y="600" width="120" height="60" as="geometry" />
        </mxCell>
        <mxCell id="GdVLOWbao8yWo_O-EaV6-20" style="edgeStyle=orthogonalEdgeStyle;rounded=0;orthogonalLoop=1;jettySize=auto;html=1;exitX=0.5;exitY=1;exitDx=0;exitDy=0;" parent="1" source="GdVLOWbao8yWo_O-EaV6-16" target="GdVLOWbao8yWo_O-EaV6-16" edge="1">
          <mxGeometry relative="1" as="geometry" />
        </mxCell>
        <mxCell id="GdVLOWbao8yWo_O-EaV6-28" style="edgeStyle=orthogonalEdgeStyle;rounded=0;orthogonalLoop=1;jettySize=auto;html=1;entryX=0.5;entryY=0;entryDx=0;entryDy=0;" parent="1" source="GdVLOWbao8yWo_O-EaV6-22" target="GdVLOWbao8yWo_O-EaV6-24" edge="1">
          <mxGeometry relative="1" as="geometry" />
        </mxCell>
        <mxCell id="GdVLOWbao8yWo_O-EaV6-22" value="KERÉK ANIMÁCIÓ&amp;nbsp;" style="rounded=1;whiteSpace=wrap;html=1;fillColor=#fbe69a;strokeColor=#000000;fontStyle=1" parent="1" vertex="1">
          <mxGeometry x="640" y="700" width="120" height="60" as="geometry" />
        </mxCell>
        <mxCell id="GdVLOWbao8yWo_O-EaV6-43" style="edgeStyle=orthogonalEdgeStyle;rounded=0;orthogonalLoop=1;jettySize=auto;html=1;entryX=1;entryY=0.5;entryDx=0;entryDy=0;" parent="1" source="GdVLOWbao8yWo_O-EaV6-24" target="GdVLOWbao8yWo_O-EaV6-42" edge="1">
          <mxGeometry relative="1" as="geometry" />
        </mxCell>
        <mxCell id="GdVLOWbao8yWo_O-EaV6-24" value="NYERTES SZÁM KIÍRATÁSA" style="rounded=1;whiteSpace=wrap;html=1;fillColor=#fbe69a;strokeColor=#000000;fontStyle=1" parent="1" vertex="1">
          <mxGeometry x="640" y="800" width="120" height="60" as="geometry" />
        </mxCell>
        <mxCell id="GdVLOWbao8yWo_O-EaV6-34" value="TÉT MEGADÁSA" style="rounded=1;whiteSpace=wrap;html=1;fillColor=#fbe69a;strokeColor=#000000;fontStyle=1" parent="1" vertex="1">
          <mxGeometry x="360" y="550" width="120" height="60" as="geometry" />
        </mxCell>
        <mxCell id="GdVLOWbao8yWo_O-EaV6-40" value="NÉV MEGADÁSA" style="rounded=1;whiteSpace=wrap;html=1;fillColor=#fbe69a;strokeColor=#000000;fontStyle=1" parent="1" vertex="1">
          <mxGeometry x="180" y="350" width="120" height="60" as="geometry" />
        </mxCell>
        <mxCell id="GdVLOWbao8yWo_O-EaV6-44" value="IGEN" style="edgeStyle=orthogonalEdgeStyle;rounded=0;orthogonalLoop=1;jettySize=auto;html=1;fontStyle=1" parent="1" source="GdVLOWbao8yWo_O-EaV6-42" edge="1">
          <mxGeometry relative="1" as="geometry">
            <mxPoint x="500" y="920" as="targetPoint" />
          </mxGeometry>
        </mxCell>
        <mxCell id="GdVLOWbao8yWo_O-EaV6-46" value="NEM" style="edgeStyle=orthogonalEdgeStyle;rounded=0;orthogonalLoop=1;jettySize=auto;html=1;entryX=-0.025;entryY=0.38;entryDx=0;entryDy=0;entryPerimeter=0;fontStyle=1" parent="1" source="GdVLOWbao8yWo_O-EaV6-42" target="GdVLOWbao8yWo_O-EaV6-14" edge="1">
          <mxGeometry x="-0.899" relative="1" as="geometry">
            <mxPoint x="280" y="460" as="targetPoint" />
            <Array as="points">
              <mxPoint x="281" y="830" />
              <mxPoint x="281" y="460" />
              <mxPoint x="460" y="460" />
              <mxPoint x="460" y="433" />
            </Array>
            <mxPoint as="offset" />
          </mxGeometry>
        </mxCell>
        <mxCell id="GdVLOWbao8yWo_O-EaV6-42" value="&lt;font style=&quot;font-size: 10px;&quot;&gt;KILÉPÉS&lt;/font&gt;" style="rhombus;whiteSpace=wrap;html=1;fillColor=#facd9f;fontStyle=1" parent="1" vertex="1">
          <mxGeometry x="440" y="790" width="120" height="80" as="geometry" />
        </mxCell>
        <mxCell id="GdVLOWbao8yWo_O-EaV6-45" value="&lt;b&gt;END&lt;/b&gt;" style="ellipse;whiteSpace=wrap;html=1;fillColor=#f4cccb;" parent="1" vertex="1">
          <mxGeometry x="440" y="920" width="120" height="80" as="geometry" />
        </mxCell>
      </root>
    </mxGraphModel>
  </diagram>
  <diagram id="ReeC68f05V3XnxSyLePB" name="2 oldal">
    <mxGraphModel dx="819" dy="422" grid="1" gridSize="10" guides="1" tooltips="1" connect="1" arrows="1" fold="1" page="1" pageScale="1" pageWidth="827" pageHeight="1169" math="0" shadow="0">
      <root>
        <mxCell id="0" />
        <mxCell id="1" parent="0" />
        <mxCell id="iR67hdQhVivsL5V8t71x-1" style="edgeStyle=orthogonalEdgeStyle;rounded=0;orthogonalLoop=1;jettySize=auto;html=1;entryX=0.5;entryY=0;entryDx=0;entryDy=0;" edge="1" parent="1" source="iR67hdQhVivsL5V8t71x-2">
          <mxGeometry relative="1" as="geometry">
            <mxPoint x="400" y="280" as="targetPoint" />
          </mxGeometry>
        </mxCell>
        <mxCell id="iR67hdQhVivsL5V8t71x-2" value="&lt;b&gt;START&lt;/b&gt;" style="ellipse;whiteSpace=wrap;html=1;fillColor=#f4cccb;" vertex="1" parent="1">
          <mxGeometry x="340" y="40" width="120" height="80" as="geometry" />
        </mxCell>
        <mxCell id="iR67hdQhVivsL5V8t71x-3" style="edgeStyle=orthogonalEdgeStyle;rounded=0;orthogonalLoop=1;jettySize=auto;html=1;entryX=0.5;entryY=0;entryDx=0;entryDy=0;" edge="1" parent="1">
          <mxGeometry relative="1" as="geometry">
            <mxPoint x="399.71" y="240" as="sourcePoint" />
            <mxPoint x="399.71" y="380" as="targetPoint" />
          </mxGeometry>
        </mxCell>
        <mxCell id="iR67hdQhVivsL5V8t71x-6" value="IGEN" style="edgeStyle=orthogonalEdgeStyle;rounded=0;orthogonalLoop=1;jettySize=auto;html=1;entryX=0.5;entryY=0;entryDx=0;entryDy=0;fontStyle=1" edge="1" parent="1" source="iR67hdQhVivsL5V8t71x-7">
          <mxGeometry relative="1" as="geometry">
            <mxPoint as="offset" />
            <mxPoint x="580" y="590" as="targetPoint" />
          </mxGeometry>
        </mxCell>
        <mxCell id="iR67hdQhVivsL5V8t71x-32" style="edgeStyle=orthogonalEdgeStyle;rounded=0;orthogonalLoop=1;jettySize=auto;html=1;entryX=0.407;entryY=0.963;entryDx=0;entryDy=0;entryPerimeter=0;" edge="1" parent="1" source="iR67hdQhVivsL5V8t71x-7" target="iR67hdQhVivsL5V8t71x-30">
          <mxGeometry relative="1" as="geometry">
            <mxPoint x="220" y="630" as="targetPoint" />
            <Array as="points">
              <mxPoint x="400" y="620" />
              <mxPoint x="229" y="620" />
            </Array>
          </mxGeometry>
        </mxCell>
        <mxCell id="iR67hdQhVivsL5V8t71x-7" value="&lt;font style=&quot;font-size: 9px;&quot;&gt;if (int.TryParse(usrBal))&lt;/font&gt;" style="rhombus;whiteSpace=wrap;html=1;fillColor=#facd9f;fontStyle=1" vertex="1" parent="1">
          <mxGeometry x="340" y="480" width="120" height="80" as="geometry" />
        </mxCell>
        <mxCell id="iR67hdQhVivsL5V8t71x-8" style="edgeStyle=orthogonalEdgeStyle;rounded=0;orthogonalLoop=1;jettySize=auto;html=1;entryX=0.5;entryY=0;entryDx=0;entryDy=0;" edge="1" parent="1">
          <mxGeometry relative="1" as="geometry">
            <mxPoint x="580.0285714285715" y="650" as="sourcePoint" />
            <mxPoint x="580" y="680" as="targetPoint" />
          </mxGeometry>
        </mxCell>
        <mxCell id="iR67hdQhVivsL5V8t71x-11" value="IGEN" style="edgeStyle=orthogonalEdgeStyle;rounded=0;orthogonalLoop=1;jettySize=auto;html=1;fontStyle=1" edge="1" parent="1">
          <mxGeometry x="-0.3345" relative="1" as="geometry">
            <mxPoint x="740" y="1140" as="targetPoint" />
            <mxPoint x="680.0000000000001" y="1079.75" as="sourcePoint" />
            <mxPoint as="offset" />
          </mxGeometry>
        </mxCell>
        <mxCell id="iR67hdQhVivsL5V8t71x-13" style="edgeStyle=orthogonalEdgeStyle;rounded=0;orthogonalLoop=1;jettySize=auto;html=1;entryX=0.5;entryY=0;entryDx=0;entryDy=0;" edge="1" parent="1">
          <mxGeometry relative="1" as="geometry">
            <mxPoint x="740" y="1200" as="sourcePoint" />
            <mxPoint x="740" y="1240" as="targetPoint" />
          </mxGeometry>
        </mxCell>
        <mxCell id="iR67hdQhVivsL5V8t71x-15" style="edgeStyle=orthogonalEdgeStyle;rounded=0;orthogonalLoop=1;jettySize=auto;html=1;exitX=0.5;exitY=1;exitDx=0;exitDy=0;" edge="1" parent="1">
          <mxGeometry relative="1" as="geometry">
            <mxPoint x="580" y="760" as="sourcePoint" />
            <mxPoint x="580" y="760" as="targetPoint" />
          </mxGeometry>
        </mxCell>
        <mxCell id="iR67hdQhVivsL5V8t71x-16" style="edgeStyle=orthogonalEdgeStyle;rounded=0;orthogonalLoop=1;jettySize=auto;html=1;entryX=0.5;entryY=0;entryDx=0;entryDy=0;" edge="1" parent="1">
          <mxGeometry relative="1" as="geometry">
            <mxPoint x="740" y="1300" as="sourcePoint" />
            <mxPoint x="740" y="1340" as="targetPoint" />
          </mxGeometry>
        </mxCell>
        <mxCell id="iR67hdQhVivsL5V8t71x-17" value="KERÉK ANIMÁCIÓ&amp;nbsp;" style="rounded=1;whiteSpace=wrap;html=1;fillColor=#fbe69a;strokeColor=#000000;fontStyle=1" vertex="1" parent="1">
          <mxGeometry x="680" y="1060" width="120" height="60" as="geometry" />
        </mxCell>
        <mxCell id="iR67hdQhVivsL5V8t71x-18" style="edgeStyle=orthogonalEdgeStyle;rounded=0;orthogonalLoop=1;jettySize=auto;html=1;entryX=1;entryY=0.5;entryDx=0;entryDy=0;" edge="1" parent="1" target="iR67hdQhVivsL5V8t71x-24">
          <mxGeometry relative="1" as="geometry">
            <mxPoint x="640" y="1010" as="sourcePoint" />
          </mxGeometry>
        </mxCell>
        <mxCell id="iR67hdQhVivsL5V8t71x-19" value="NYERTES SZÁM KIÍRATÁSA" style="rounded=1;whiteSpace=wrap;html=1;fillColor=#fbe69a;strokeColor=#000000;fontStyle=1" vertex="1" parent="1">
          <mxGeometry x="680" y="1160" width="120" height="60" as="geometry" />
        </mxCell>
        <mxCell id="iR67hdQhVivsL5V8t71x-22" value="IGEN" style="edgeStyle=orthogonalEdgeStyle;rounded=0;orthogonalLoop=1;jettySize=auto;html=1;fontStyle=1" edge="1" parent="1" source="iR67hdQhVivsL5V8t71x-24">
          <mxGeometry relative="1" as="geometry">
            <mxPoint x="500" y="1100" as="targetPoint" />
          </mxGeometry>
        </mxCell>
        <mxCell id="iR67hdQhVivsL5V8t71x-24" value="&lt;font style=&quot;font-size: 10px;&quot;&gt;KILÉPÉS&lt;/font&gt;" style="rhombus;whiteSpace=wrap;html=1;fillColor=#facd9f;fontStyle=1" vertex="1" parent="1">
          <mxGeometry x="440" y="970" width="120" height="80" as="geometry" />
        </mxCell>
        <mxCell id="iR67hdQhVivsL5V8t71x-25" value="&lt;b&gt;END&lt;/b&gt;" style="ellipse;whiteSpace=wrap;html=1;fillColor=#f4cccb;" vertex="1" parent="1">
          <mxGeometry x="440" y="1100" width="120" height="80" as="geometry" />
        </mxCell>
        <mxCell id="iR67hdQhVivsL5V8t71x-27" value="&lt;b&gt;usrName&lt;/b&gt;" style="shape=parallelogram;perimeter=parallelogramPerimeter;whiteSpace=wrap;html=1;fixedSize=1;fillColor=#dae8fc;strokeColor=#6c8ebf;" vertex="1" parent="1">
          <mxGeometry x="340" y="280" width="120" height="60" as="geometry" />
        </mxCell>
        <mxCell id="iR67hdQhVivsL5V8t71x-29" style="edgeStyle=orthogonalEdgeStyle;rounded=0;orthogonalLoop=1;jettySize=auto;html=1;entryX=0.5;entryY=0;entryDx=0;entryDy=0;" edge="1" parent="1" source="iR67hdQhVivsL5V8t71x-28" target="iR67hdQhVivsL5V8t71x-7">
          <mxGeometry relative="1" as="geometry" />
        </mxCell>
        <mxCell id="iR67hdQhVivsL5V8t71x-28" value="&lt;b&gt;usrBal&lt;/b&gt;" style="shape=parallelogram;perimeter=parallelogramPerimeter;whiteSpace=wrap;html=1;fixedSize=1;fillColor=#dae8fc;strokeColor=#6c8ebf;" vertex="1" parent="1">
          <mxGeometry x="340" y="380" width="120" height="60" as="geometry" />
        </mxCell>
        <mxCell id="iR67hdQhVivsL5V8t71x-39" style="edgeStyle=orthogonalEdgeStyle;rounded=0;orthogonalLoop=1;jettySize=auto;html=1;" edge="1" parent="1">
          <mxGeometry relative="1" as="geometry">
            <mxPoint x="340" y="520" as="targetPoint" />
            <mxPoint x="280" y="540" as="sourcePoint" />
            <Array as="points">
              <mxPoint x="230" y="540" />
              <mxPoint x="230" y="520" />
            </Array>
          </mxGeometry>
        </mxCell>
        <mxCell id="iR67hdQhVivsL5V8t71x-30" value="&lt;b&gt;usrBal&lt;/b&gt;" style="shape=parallelogram;perimeter=parallelogramPerimeter;whiteSpace=wrap;html=1;fixedSize=1;fillColor=#dae8fc;strokeColor=#6c8ebf;" vertex="1" parent="1">
          <mxGeometry x="180" y="540" width="120" height="60" as="geometry" />
        </mxCell>
        <mxCell id="iR67hdQhVivsL5V8t71x-43" value="&lt;b&gt;usrBet&lt;/b&gt;" style="shape=parallelogram;perimeter=parallelogramPerimeter;whiteSpace=wrap;html=1;fixedSize=1;fillColor=#dae8fc;strokeColor=#6c8ebf;" vertex="1" parent="1">
          <mxGeometry x="520" y="590" width="120" height="60" as="geometry" />
        </mxCell>
        <mxCell id="iR67hdQhVivsL5V8t71x-47" style="edgeStyle=orthogonalEdgeStyle;rounded=0;orthogonalLoop=1;jettySize=auto;html=1;entryX=0.5;entryY=0;entryDx=0;entryDy=0;" edge="1" parent="1" source="iR67hdQhVivsL5V8t71x-44" target="iR67hdQhVivsL5V8t71x-45">
          <mxGeometry relative="1" as="geometry" />
        </mxCell>
        <mxCell id="iR67hdQhVivsL5V8t71x-44" value="usrBal &lt;font style=&quot;font-size: 17px;&quot;&gt;-&lt;/font&gt;=&amp;nbsp; usrBet&amp;nbsp;" style="rounded=1;whiteSpace=wrap;html=1;fillColor=#fbe69a;strokeColor=#000000;fontStyle=1" vertex="1" parent="1">
          <mxGeometry x="520" y="680" width="120" height="60" as="geometry" />
        </mxCell>
        <mxCell id="iR67hdQhVivsL5V8t71x-49" style="edgeStyle=orthogonalEdgeStyle;rounded=0;orthogonalLoop=1;jettySize=auto;html=1;entryX=0.429;entryY=1.005;entryDx=0;entryDy=0;entryPerimeter=0;" edge="1" parent="1" source="iR67hdQhVivsL5V8t71x-45" target="iR67hdQhVivsL5V8t71x-48">
          <mxGeometry relative="1" as="geometry">
            <mxPoint x="420" y="860" as="targetPoint" />
            <Array as="points">
              <mxPoint x="580" y="860" />
              <mxPoint x="421" y="860" />
            </Array>
          </mxGeometry>
        </mxCell>
        <mxCell id="iR67hdQhVivsL5V8t71x-45" value="&lt;span style=&quot;font-size: 10px;&quot;&gt;if (userBet &amp;gt; usrBal)&lt;/span&gt;" style="rhombus;whiteSpace=wrap;html=1;fillColor=#facd9f;fontStyle=1" vertex="1" parent="1">
          <mxGeometry x="520" y="760" width="120" height="80" as="geometry" />
        </mxCell>
        <mxCell id="iR67hdQhVivsL5V8t71x-50" style="edgeStyle=orthogonalEdgeStyle;rounded=0;orthogonalLoop=1;jettySize=auto;html=1;entryX=0;entryY=0.5;entryDx=0;entryDy=0;" edge="1" parent="1" source="iR67hdQhVivsL5V8t71x-48" target="iR67hdQhVivsL5V8t71x-45">
          <mxGeometry relative="1" as="geometry" />
        </mxCell>
        <mxCell id="iR67hdQhVivsL5V8t71x-48" value="&lt;b&gt;usrBet&lt;/b&gt;" style="shape=parallelogram;perimeter=parallelogramPerimeter;whiteSpace=wrap;html=1;fixedSize=1;fillColor=#dae8fc;strokeColor=#6c8ebf;" vertex="1" parent="1">
          <mxGeometry x="370" y="770" width="120" height="60" as="geometry" />
        </mxCell>
      </root>
    </mxGraphModel>
  </diagram>
</mxfile>
